<?xml version="1.0" encoding="iso-8859-1"?>
<!-- Generator: Adobe Illustrator 18.0.0, SVG Export Plug-In . SVG Version: 6.00 Build 0)  -->
<!DOCTYPE svg PUBLIC "-//W3C//DTD SVG 1.1//EN" "http://www.w3.org/Graphics/SVG/1.1/DTD/svg11.dtd">
<svg version="1.1" id="Capa_1" xmlns="http://www.w3.org/2000/svg" xmlns:xlink="http://www.w3.org/1999/xlink" x="0px" y="0px"
	 viewBox="0 0 291.613 291.613" style="enable-background:new 0 0 291.613 291.613;" xml:space="preserve">
<g>
	<path d="M184.371,239.672v-85.396V90.999V67.92c0-21.256-17.299-38.549-38.56-38.549c-21.263,0-38.561,17.293-38.561,38.549
		v135.065c0,3.039,2.464,5.503,5.503,5.503c3.04,0,5.503-2.464,5.503-5.503V67.92c0-15.187,12.361-27.543,27.555-27.543
		c15.193,0,27.554,12.356,27.554,27.543v23.079v63.276v85.396c0,22.571-18.359,40.936-40.925,40.936
		c-22.568,0-40.928-18.364-40.928-40.936V66.236c0-0.157-0.011-0.312-0.023-0.466c0.013-0.154,0.023-0.309,0.023-0.466
		c0-29.94,24.358-54.299,54.299-54.299c29.935,0,54.291,24.358,54.291,54.299v137.681c0,3.039,2.463,5.503,5.502,5.503
		c3.039,0,5.504-2.464,5.504-5.503V65.305C211.107,29.296,181.814,0,145.811,0c-36.009,0-65.305,29.296-65.305,65.305
		c0,0.157,0.011,0.312,0.023,0.466c-0.013,0.154-0.023,0.309-0.023,0.466v173.436c0,28.641,23.298,51.941,51.934,51.941
		C161.074,291.613,184.371,268.313,184.371,239.672z"/>
</g>
<g>
</g>
<g>
</g>
<g>
</g>
<g>
</g>
<g>
</g>
<g>
</g>
<g>
</g>
<g>
</g>
<g>
</g>
<g>
</g>
<g>
</g>
<g>
</g>
<g>
</g>
<g>
</g>
<g>
</g>
</svg>
