<svg width="25" height="24" viewBox="0 0 25 24" fill="none" xmlns="http://www.w3.org/2000/svg">
<path d="M1.01079 8.95698C0.472338 9.16245 0.090314 9.6437 0.0140664 10.2117C-0.0613952 10.7804 0.181497 11.3437 0.647629 11.6804L5.75072 15.371L23.8757 1.19838L7.84871 16.8914L14.825 21.9367C15.2683 22.257 15.8413 22.3531 16.3688 22.1945C16.8955 22.0351 17.3152 21.6374 17.5039 21.1257L24.9667 0.824164C25.0422 0.617914 24.9887 0.387445 24.8315 0.233539C24.6751 0.0796327 24.4432 0.0311952 24.2357 0.110101L1.01079 8.95698Z" fill="black"/>
<path d="M4.53857 16.5984L4.58181 16.8335L5.57224 22.2156C5.64613 22.6156 5.91496 22.9507 6.28913 23.1125C6.66329 23.2734 7.09484 23.239 7.43756 23.0195C8.81709 22.1351 10.6187 20.9617 10.57 20.8929L4.53857 16.5984Z" fill="black"/>
</svg>
